<svg width="128" height="128" viewBox="0 0 128 128" fill="none" xmlns="http://www.w3.org/2000/svg">
  <!-- Background circle -->
  <circle cx="64" cy="64" r="60" fill="#1e1e1e"/>
  
  <!-- Main Neira "N" logo in white -->
  <g transform="translate(24, 24) scale(0.22, 0.22)">
    <path d="M203.87 148.48H141.11L93.17 64.83C89.01 57.7 83.33 54.35 75.34 54.35C69.44 54.35 64.66 56.26 60.75 60.17C56.84 64.08 54.93 68.86 54.93 74.74V318.78H0V74.74C0 64.42 2.09 54.62 6.18 45.57C10.2 36.7 15.56 28.77 22.12 21.98C28.81 15.09 36.86 9.65 46.07 5.8C55.25 1.95 65.11 0 75.34 0C88.99 0 101.68 3.37 113.04 10.02C124.34 16.65 133.54 25.82 140.34 37.3L203.86 148.48H203.87Z" fill="white"/>
    <path d="M356.72 0V243.46C356.72 253.68 354.77 263.54 350.92 272.73C347.09 281.9 341.67 290.01 334.82 296.88C327.99 303.71 319.98 309.11 311.03 312.96C302 316.81 292.24 318.78 281.98 318.78C268.31 318.78 255.5 315.31 243.96 308.46C232.42 301.63 223.3 292.3 216.88 280.72L153.62 170.3H216.34L264.16 253.97C265.97 257.26 268.36 259.73 271.55 261.62C274.76 263.51 278.18 264.43 281.99 264.43C287.85 264.43 292.59 262.46 296.48 258.41C300.45 254.29 302.38 249.4 302.38 243.45V0H356.72Z" fill="white"/>
  </g>
  
  <!-- Nightly indicator - golden dot -->
  <circle cx="100" cy="28" r="8" fill="#FFD700"/>
  <circle cx="100" cy="28" r="6" fill="#FFA500" opacity="0.8"/>
  
  <!-- Subtle border -->
  <circle cx="64" cy="64" r="60" fill="none" stroke="#333" stroke-width="1" opacity="0.3"/>
</svg>