<svg width="1346" height="319" viewBox="0 0 1346 319" fill="none" xmlns="http://www.w3.org/2000/svg">
<g clip-path="url(#clip0_122_10)">
<path d="M203.87 148.48H141.11L93.17 64.83C89.01 57.7 83.33 54.35 75.34 54.35C69.44 54.35 64.66 56.26 60.75 60.17C56.84 64.08 54.93 68.86 54.93 74.74V318.78H0V74.74C0 64.42 2.09 54.62 6.18 45.57C10.2 36.7 15.56 28.77 22.12 21.98C28.81 15.09 36.86 9.65 46.07 5.8C55.25 1.95 65.11 0 75.34 0C88.99 0 101.68 3.37 113.04 10.02C124.34 16.65 133.54 25.82 140.34 37.3L203.86 148.48H203.87Z" fill="black"/>
<path d="M356.72 0V243.46C356.72 253.68 354.77 263.54 350.92 272.73C347.09 281.9 341.67 290.01 334.82 296.88C327.99 303.71 319.98 309.11 311.03 312.96C302 316.81 292.24 318.78 281.98 318.78C268.31 318.78 255.5 315.31 243.96 308.46C232.42 301.63 223.3 292.3 216.88 280.72L153.62 170.3H216.34L264.16 253.97C265.97 257.26 268.36 259.73 271.55 261.62C274.76 263.51 278.18 264.43 281.99 264.43C287.85 264.43 292.59 262.46 296.48 258.41C300.45 254.29 302.38 249.4 302.38 243.45V0H356.72Z" fill="black"/>
<path d="M649.74 188.55H476.92V243.48H649.74C661.18 243.48 672.14 241.22 682.33 236.76C692.46 232.33 701.36 226.22 708.78 218.58C716.16 210.99 722.12 202.04 726.52 191.98C730.98 181.79 733.24 170.83 733.24 159.39C733.24 147.95 730.98 136.99 726.52 126.8C722.12 116.74 716.15 107.79 708.77 100.2C701.35 92.5701 692.46 86.4601 682.32 82.0301C672.13 77.5701 661.16 75.3101 649.73 75.3101H498.54C481.7 75.3101 465.64 78.5501 450.81 84.9301C436.03 91.3001 423.02 100.05 412.14 110.93C401.24 121.83 392.49 134.84 386.14 149.6C379.76 164.41 376.52 180.47 376.52 197.33C376.52 214.19 379.76 229.66 386.14 244.47C392.5 259.25 401.25 272.26 412.14 283.14C423.03 294.04 436.04 302.79 450.82 309.15C465.63 315.53 481.69 318.77 498.55 318.77H705.11V264.43H498.55C489.44 264.43 480.76 262.66 472.74 259.17C464.65 255.66 457.43 250.76 451.27 244.6C445.11 238.45 440.21 231.23 436.69 223.12C433.2 215.12 431.44 206.43 431.44 197.33C431.44 188.23 433.21 178.96 436.7 170.94C440.2 162.89 445.08 155.78 451.2 149.83C457.36 143.84 464.61 139.01 472.74 135.47C480.78 131.98 489.46 130.21 498.55 130.21H649.74C657.99 130.21 664.77 132.97 670.45 138.66C676.13 144.34 678.9 151.12 678.9 159.37C678.9 167.62 676.14 174.4 670.45 180.08C664.77 185.76 657.99 188.53 649.74 188.53V188.55Z" fill="black"/>
<path d="M810.88 75.3H755.95V318.78H810.88V75.3Z" fill="black"/>
<path d="M810.88 0H755.95V55.51H810.88V0Z" fill="black"/>
<path d="M1062.25 130.23V75.3H979.91C960.34 75.3 941.82 79.03 924.87 86.39C907.98 93.72 892.91 103.94 880.08 116.77C867.26 129.59 857.04 144.66 849.71 161.56C842.35 178.53 838.62 197.05 838.62 216.6V318.78H893.55V216.6C893.55 204.75 895.82 193.4 900.29 182.86C904.77 172.3 911.02 163.05 918.87 155.37C926.77 147.65 936.07 141.45 946.51 136.95C956.87 132.49 968.11 130.23 979.92 130.23H1062.26H1062.25Z" fill="black"/>
<path d="M1336.86 137.57C1331.49 125.36 1324.12 114.53 1314.98 105.39C1305.84 96.2501 1295.01 88.8801 1282.77 83.4801C1270.42 78.0501 1257 75.3201 1242.88 75.3201H1200.64C1186.82 75.3201 1173.29 79.3801 1161.76 87.0001L1023.02 178.61C1011.97 185.84 1003.33 195.15 997.34 206.26C991.35 217.37 988.34 229.47 988.34 242.29C988.34 252.98 990.39 263.05 994.47 272.28C998.49 281.39 1004.01 289.5 1010.81 296.27C1017.65 303.11 1025.83 308.62 1035.17 312.64C1044.56 316.72 1054.55 318.77 1064.82 318.77H1145.21L1268.87 234.38V180.03L1143.94 264.42H1064.82C1058.97 264.42 1054.05 262.25 1049.74 257.81C1045.38 253.31 1043.24 248.22 1043.24 242.28C1043.24 234.15 1046.31 228.44 1052.94 224.19L1195.36 130.21H1242.87C1249.62 130.21 1255.92 131.48 1261.6 134.01C1267.39 136.54 1272.46 139.97 1276.71 144.19C1280.93 148.44 1284.36 153.53 1286.92 159.3C1289.42 164.98 1290.69 171.11 1290.69 177.47V318.76H1345.04V177.47C1345.04 163.35 1342.28 149.9 1336.85 137.55L1336.86 137.57Z" fill="black"/>
</g>
<defs>
<clipPath id="clip0_122_10">
<rect width="1345.04" height="318.78" fill="white"/>
</clipPath>
</defs>
</svg>
